<svg xmlns="http://www.w3.org/2000/svg" width="60.00" height="34.64" viewBox="0 0 60.00 34.64"><g fill="none" stroke="#FFFFFF" stroke-opacity="1" stroke-width="1.4"><path d="M-10.00 -17.32 L -20.00 0.00 L -40.00 0.00 L -50.00 -17.32 L -40.00 -34.64 L -20.00 -34.64 Z"></path><path d="M-10.00 17.32 L -20.00 34.64 L -40.00 34.64 L -50.00 17.32 L -40.00 0.00 L -20.00 0.00 Z"></path><path d="M-10.00 51.96 L -20.00 69.28 L -40.00 69.28 L -50.00 51.96 L -40.00 34.64 L -20.00 34.64 Z"></path><path d="M-10.00 86.60 L -20.00 103.92 L -40.00 103.92 L -50.00 86.60 L -40.00 69.28 L -20.00 69.28 Z"></path><path d="M20.00 -34.64 L 10.00 -17.32 L -10.00 -17.32 L -20.00 -34.64 L -10.00 -51.96 L 10.00 -51.96 Z"></path><path d="M20.00 0.00 L 10.00 17.32 L -10.00 17.32 L -20.00 0.00 L -10.00 -17.32 L 10.00 -17.32 Z"></path><path d="M20.00 34.64 L 10.00 51.96 L -10.00 51.96 L -20.00 34.64 L -10.00 17.32 L 10.00 17.32 Z"></path><path d="M20.00 69.28 L 10.00 86.60 L -10.00 86.60 L -20.00 69.28 L -10.00 51.96 L 10.00 51.96 Z"></path><path d="M50.00 -17.32 L 40.00 0.00 L 20.00 0.00 L 10.00 -17.32 L 20.00 -34.64 L 40.00 -34.64 Z"></path><path d="M50.00 17.32 L 40.00 34.64 L 20.00 34.64 L 10.00 17.32 L 20.00 0.00 L 40.00 0.00 Z"></path><path d="M50.00 51.96 L 40.00 69.28 L 20.00 69.28 L 10.00 51.96 L 20.00 34.64 L 40.00 34.64 Z"></path><path d="M50.00 86.60 L 40.00 103.92 L 20.00 103.92 L 10.00 86.60 L 20.00 69.28 L 40.00 69.28 Z"></path><path d="M80.00 -34.64 L 70.00 -17.32 L 50.00 -17.32 L 40.00 -34.64 L 50.00 -51.96 L 70.00 -51.96 Z"></path><path d="M80.00 0.00 L 70.00 17.32 L 50.00 17.32 L 40.00 0.00 L 50.00 -17.32 L 70.00 -17.32 Z"></path><path d="M80.00 34.64 L 70.00 51.96 L 50.00 51.96 L 40.00 34.64 L 50.00 17.32 L 70.00 17.32 Z"></path><path d="M80.00 69.28 L 70.00 86.60 L 50.00 86.60 L 40.00 69.28 L 50.00 51.96 L 70.00 51.96 Z"></path></g></svg>